<svg xmlns="http://www.w3.org/2000/svg" version="1.1" width="260" height="260" viewBox="0 0 260 260"><defs/><path fill="none" stroke="#000000" d="M 40,260 L 40,20" style="stroke-width: 2px;opacity: 0.1" stroke-width="2" opacity="0.1"/><path fill="none" stroke="#000000" d="M 0,220 L 240,220" style="stroke-width: 2px;opacity: 0.1" stroke-width="2" opacity="0.1"/><path fill="none" stroke="#000000" d="M -3.45,225.6 C -3.1,223.5 0.75,220.35 1.8,220 C 0.75,219.65 -3.1,216.5 -3.45,214.4" transform="rotate(180 1.7999999999999972 220)" style="stroke-width: 2px;opacity: 1;stroke-linejoin: round;stroke-linecap: round" stroke-width="2" opacity="1" stroke-linejoin="round" stroke-linecap="round"/><path fill="none" stroke="#000000" d="M 40,220 S 40,220 1.05,220" style="stroke-width: 2px;opacity: 1" stroke-width="2" opacity="1"/><path fill="none" stroke="#000000" d="M 234.45,225.6 C 234.8,223.5 238.65,220.35 239.7,220 C 238.65,219.65 234.8,216.5 234.45,214.4" transform="" style="stroke-width: 2px;opacity: 1;stroke-linejoin: round;stroke-linecap: round" stroke-width="2" opacity="1" stroke-linejoin="round" stroke-linecap="round"/><path fill="none" stroke="#000000" d="M 40,220 S 40,220 238.95,220" style="stroke-width: 2px;opacity: 1" stroke-width="2" opacity="1"/><path fill="none" stroke="#000000" d="M 35.5,264.55 C 35.85,262.45 39.7,259.3 40.75,258.95 C 39.7,258.6 35.85,255.45 35.5,253.35" transform="rotate(90 40.75 258.95)" style="stroke-width: 2px;opacity: 1;stroke-linejoin: round;stroke-linecap: round" stroke-width="2" opacity="1" stroke-linejoin="round" stroke-linecap="round"/><path fill="none" stroke="#000000" d="M 40,220 S 40,220 40,258.95" style="stroke-width: 2px;opacity: 1" stroke-width="2" opacity="1"/><path fill="none" stroke="#000000" d="M 35.5,26.65 C 35.85,24.55 39.7,21.4 40.75,21.05 C 39.7,20.7 35.85,17.55 35.5,15.45" transform="rotate(-90 40.75 21.05000000000001)" style="stroke-width: 2px;opacity: 1;stroke-linejoin: round;stroke-linecap: round" stroke-width="2" opacity="1" stroke-linejoin="round" stroke-linecap="round"/><path fill="none" stroke="#000000" d="M 40,220 S 40,220 40,21.05" style="stroke-width: 2px;opacity: 1" stroke-width="2" opacity="1"/><ellipse cx="80" cy="180" rx="4" ry="4" fill="#000000" stroke="#000" style="stroke-width: 2px" stroke-width="2"/><ellipse cx="200" cy="60" rx="4" ry="4" fill="#000000" stroke="#000" style="stroke-width: 2px" stroke-width="2"/><path fill="none" stroke="#29abca" d="M -160,420 L -159.5,419.5 L -159,419 L -158.5,418.5 L -158,418 L -157.5,417.5 L -157,417 L -156.5,416.5 L -156,416 L -155.5,415.5 L -155,415 L -154.5,414.5 L -154,414 L -153.5,413.5 L -153,413 L -152.5,412.5 L -152,412 L -151.5,411.5 L -151,411 L -150.5,410.5 L -150,410 L -149.5,409.5 L -149,409 L -148.5,408.5 L -148,408 L -147.5,407.5 L -147,407 L -146.5,406.5 L -146,406 L -145.5,405.5 L -145,405 L -144.5,404.5 L -144,404 L -143.5,403.5 L -143,403 L -142.5,402.5 L -142,402 L -141.5,401.5 L -141,401 L -140.5,400.5 L -140,400 L -139.5,399.5 L -139,399 L -138.5,398.5 L -138,398 L -137.5,397.5 L -137,397 L -136.5,396.5 L -136,396 L -135.5,395.5 L -135,395 L -134.5,394.5 L -134,394 L -133.5,393.5 L -133,393 L -132.5,392.5 L -132,392 L -131.5,391.5 L -131,391 L -130.5,390.5 L -130,390 L -129.5,389.5 L -129,389 L -128.5,388.5 L -128,388 L -127.5,387.5 L -127,387 L -126.5,386.5 L -126,386 L -125.5,385.5 L -125,385 L -124.5,384.5 L -124,384 L -123.5,383.5 L -123,383 L -122.5,382.5 L -122,382 L -121.5,381.5 L -121,381 L -120.5,380.5 L -120,380 L -119.5,379.5 L -119,379 L -118.5,378.5 L -118,378 L -117.5,377.5 L -117,377 L -116.5,376.5 L -116,376 L -115.5,375.5 L -115,375 L -114.5,374.5 L -114,374 L -113.5,373.5 L -113,373 L -112.5,372.5 L -112,372 L -111.5,371.5 L -111,371 L -110.5,370.5 L -110,370 L -109.5,369.5 L -109,369 L -108.5,368.5 L -108,368 L -107.5,367.5 L -107,367 L -106.5,366.5 L -106,366 L -105.5,365.5 L -105,365 L -104.5,364.5 L -104,364 L -103.5,363.5 L -103,363 L -102.5,362.5 L -102,362 L -101.5,361.5 L -101,361 L -100.5,360.5 L -100,360 L -99.5,359.5 L -99,359 L -98.5,358.5 L -98,358 L -97.5,357.5 L -97,357 L -96.5,356.5 L -96,356 L -95.5,355.5 L -95,355 L -94.5,354.5 L -94,354 L -93.5,353.5 L -93,353 L -92.5,352.5 L -92,352 L -91.5,351.5 L -91,351 L -90.5,350.5 L -90,350 L -89.5,349.5 L -89,349 L -88.5,348.5 L -88,348 L -87.5,347.5 L -87,347 L -86.5,346.5 L -86,346 L -85.5,345.5 L -85,345 L -84.5,344.5 L -84,344 L -83.5,343.5 L -83,343 L -82.5,342.5 L -82,342 L -81.5,341.5 L -81,341 L -80.5,340.5 L -80,340 L -79.5,339.5 L -79,339 L -78.5,338.5 L -78,338 L -77.5,337.5 L -77,337 L -76.5,336.5 L -76,336 L -75.5,335.5 L -75,335 L -74.5,334.5 L -74,334 L -73.5,333.5 L -73,333 L -72.5,332.5 L -72,332 L -71.5,331.5 L -71,331 L -70.5,330.5 L -70,330 L -69.5,329.5 L -69,329 L -68.5,328.5 L -68,328 L -67.5,327.5 L -67,327 L -66.5,326.5 L -66,326 L -65.5,325.5 L -65,325 L -64.5,324.5 L -64,324 L -63.5,323.5 L -63,323 L -62.5,322.5 L -62,322 L -61.5,321.5 L -61,321 L -60.5,320.5 L -60,320 L -59.5,319.5 L -59,319 L -58.5,318.5 L -58,318 L -57.5,317.5 L -57,317 L -56.5,316.5 L -56,316 L -55.5,315.5 L -55,315 L -54.5,314.5 L -54,314 L -53.5,313.5 L -53,313 L -52.5,312.5 L -52,312 L -51.5,311.5 L -51,311 L -50.5,310.5 L -50,310 L -49.5,309.5 L -49,309 L -48.5,308.5 L -48,308 L -47.5,307.5 L -47,307 L -46.5,306.5 L -46,306 L -45.5,305.5 L -45,305 L -44.5,304.5 L -44,304 L -43.5,303.5 L -43,303 L -42.5,302.5 L -42,302 L -41.5,301.5 L -41,301 L -40.5,300.5 L -40,300 L -39.5,299.5 L -39,299 L -38.5,298.5 L -38,298 L -37.5,297.5 L -37,297 L -36.5,296.5 L -36,296 L -35.5,295.5 L -35,295 L -34.5,294.5 L -34,294 L -33.5,293.5 L -33,293 L -32.5,292.5 L -32,292 L -31.5,291.5 L -31,291 L -30.5,290.5 L -30,290 L -29.5,289.5 L -29,289 L -28.5,288.5 L -28,288 L -27.5,287.5 L -27,287 L -26.5,286.5 L -26,286 L -25.5,285.5 L -25,285 L -24.5,284.5 L -24,284 L -23.5,283.5 L -23,283 L -22.5,282.5 L -22,282 L -21.5,281.5 L -21,281 L -20.5,280.5 L -20,280 L -19.5,279.5 L -19,279 L -18.5,278.5 L -18,278 L -17.5,277.5 L -17,277 L -16.5,276.5 L -16,276 L -15.5,275.5 L -15,275 L -14.5,274.5 L -14,274 L -13.5,273.5 L -13,273 L -12.5,272.5 L -12,272 L -11.5,271.5 L -11,271 L -10.5,270.5 L -10,270 L -9.5,269.5 L -9,269 L -8.5,268.5 L -8,268 L -7.5,267.5 L -7,267 L -6.5,266.5 L -6,266 L -5.5,265.5 L -5,265 L -4.5,264.5 L -4,264 L -3.5,263.5 L -3,263 L -2.5,262.5 L -2,262 L -1.5,261.5 L -1,261 L -0.5,260.5 L 1E-06,260 L 0.5,259.5 L 1,259 L 1.5,258.5 L 2,258 L 2.5,257.5 L 3,257 L 3.5,256.5 L 4,256 L 4.5,255.5 L 5,255 L 5.5,254.5 L 6,254 L 6.5,253.5 L 7,253 L 7.5,252.5 L 8,252 L 8.5,251.5 L 9,251 L 9.5,250.5 L 10,250 L 10.5,249.5 L 11,249 L 11.5,248.5 L 12,248 L 12.5,247.5 L 13,247 L 13.5,246.5 L 14,246 L 14.5,245.5 L 15,245 L 15.5,244.5 L 16,244 L 16.5,243.5 L 17,243 L 17.5,242.5 L 18,242 L 18.5,241.5 L 19,241 L 19.5,240.5 L 20,240 L 20.5,239.5 L 21,239 L 21.5,238.5 L 22,238 L 22.5,237.5 L 23,237 L 23.5,236.5 L 24,236 L 24.5,235.5 L 25,235 L 25.5,234.5 L 26,234 L 26.5,233.5 L 27,233 L 27.5,232.5 L 28,232 L 28.5,231.5 L 29,231 L 29.5,230.5 L 30,230 L 30.5,229.5 L 31,229 L 31.5,228.5 L 32,228 L 32.5,227.5 L 33,227 L 33.5,226.5 L 34,226 L 34.5,225.5 L 35,225 L 35.5,224.5 L 36,224 L 36.5,223.5 L 37,223 L 37.5,222.5 L 38,222 L 38.5,221.5 L 39,221 L 39.5,220.5 L 40,220 L 40.5,219.5 L 41,219 L 41.5,218.5 L 42,218 L 42.5,217.5 L 43,217 L 43.5,216.5 L 44,216 L 44.5,215.5 L 45,215 L 45.5,214.5 L 46,214 L 46.5,213.5 L 47,213 L 47.5,212.5 L 48,212 L 48.5,211.5 L 49,211 L 49.5,210.5 L 50,210 L 50.5,209.5 L 51,209 L 51.5,208.5 L 52,208 L 52.5,207.5 L 53,207 L 53.5,206.5 L 54,206 L 54.5,205.5 L 55,205 L 55.5,204.5 L 56,204 L 56.5,203.5 L 57,203 L 57.5,202.5 L 58,202 L 58.5,201.5 L 59,201 L 59.5,200.5 L 60,200 L 60.5,199.5 L 61,199 L 61.5,198.5 L 62,198 L 62.5,197.5 L 63,197 L 63.5,196.5 L 64,196 L 64.5,195.5 L 65,195 L 65.5,194.5 L 66,194 L 66.5,193.5 L 67,193 L 67.5,192.5 L 68,192 L 68.5,191.5 L 69,191 L 69.5,190.5 L 70,190 L 70.5,189.5 L 71,189 L 71.5,188.5 L 72,188 L 72.5,187.5 L 73,187 L 73.5,186.5 L 74,186 L 74.5,185.5 L 75,185 L 75.5,184.5 L 76,184 L 76.5,183.5 L 77,183 L 77.5,182.5 L 78,182 L 78.5,181.5 L 79,181 L 79.5,180.5 L 80,180 L 80.5,179.5 L 81,179 L 81.5,178.5 L 82,178 L 82.5,177.5 L 83,177 L 83.5,176.5 L 84,176 L 84.5,175.5 L 85,175 L 85.5,174.5 L 86,174 L 86.5,173.5 L 87,173 L 87.5,172.5 L 88,172 L 88.5,171.5 L 89,171 L 89.5,170.5 L 90,170 L 90.5,169.5 L 91,169 L 91.5,168.5 L 92,168 L 92.5,167.5 L 93,167 L 93.5,166.5 L 94,166 L 94.5,165.5 L 95,165 L 95.5,164.5 L 96,164 L 96.5,163.5 L 97,163 L 97.5,162.5 L 98,162 L 98.5,161.5 L 99,161 L 99.5,160.5 L 100,160 L 100.5,159.5 L 101,159 L 101.5,158.5 L 102,158 L 102.5,157.5 L 103,157 L 103.5,156.5 L 104,156 L 104.5,155.5 L 105,155 L 105.5,154.5 L 106,154 L 106.5,153.5 L 107,153 L 107.5,152.5 L 108,152 L 108.5,151.5 L 109,151 L 109.5,150.5 L 110,150 L 110.5,149.5 L 111,149 L 111.5,148.5 L 112,148 L 112.5,147.5 L 113,147 L 113.5,146.5 L 114,146 L 114.5,145.5 L 115,145 L 115.5,144.5 L 116,144 L 116.5,143.5 L 117,143 L 117.5,142.5 L 118,142 L 118.5,141.5 L 119,141 L 119.5,140.5 L 120,140 L 120.5,139.5 L 121,139 L 121.5,138.5 L 122,138 L 122.5,137.5 L 123,137 L 123.5,136.5 L 124,136 L 124.5,135.5 L 125,135 L 125.5,134.5 L 126,134 L 126.5,133.5 L 127,133 L 127.5,132.5 L 128,132 L 128.5,131.5 L 129,131 L 129.5,130.5 L 130,130 L 130.5,129.5 L 131,129 L 131.5,128.5 L 132,128 L 132.5,127.5 L 133,127 L 133.5,126.5 L 134,126 L 134.5,125.5 L 135,125 L 135.5,124.5 L 136,124 L 136.5,123.5 L 137,123 L 137.5,122.5 L 138,122 L 138.5,121.5 L 139,121 L 139.5,120.5 L 140,120 L 140.5,119.5 L 141,119 L 141.5,118.5 L 142,118 L 142.5,117.5 L 143,117 L 143.5,116.5 L 144,116 L 144.5,115.5 L 145,115 L 145.5,114.5 L 146,114 L 146.5,113.5 L 147,113 L 147.5,112.5 L 148,112 L 148.5,111.5 L 149,111 L 149.5,110.5 L 150,110 L 150.5,109.5 L 151,109 L 151.5,108.5 L 152,108 L 152.5,107.5 L 153,107 L 153.5,106.5 L 154,106 L 154.5,105.5 L 155,105 L 155.5,104.5 L 156,104 L 156.5,103.5 L 157,103 L 157.5,102.5 L 158,102 L 158.5,101.5 L 159,101 L 159.5,100.5 L 160,100 L 160.5,99.5 L 161,99 L 161.5,98.5 L 162,98 L 162.5,97.5 L 163,97 L 163.5,96.5 L 164,96 L 164.5,95.5 L 165,95 L 165.5,94.5 L 166,94 L 166.5,93.5 L 167,93 L 167.5,92.5 L 168,92 L 168.5,91.5 L 169,91 L 169.5,90.5 L 170,90 L 170.5,89.5 L 171,89 L 171.5,88.5 L 172,88 L 172.5,87.5 L 173,87 L 173.5,86.5 L 174,86 L 174.5,85.5 L 175,85 L 175.5,84.5 L 176,84 L 176.5,83.5 L 177,83 L 177.5,82.5 L 178,82 L 178.5,81.5 L 179,81 L 179.5,80.5 L 180,80 L 180.5,79.5 L 181,79 L 181.5,78.5 L 182,78 L 182.5,77.5 L 183,77 L 183.5,76.5 L 184,76 L 184.5,75.5 L 185,75 L 185.5,74.5 L 186,74 L 186.5,73.5 L 187,73 L 187.5,72.5 L 188,72 L 188.5,71.5 L 189,71 L 189.5,70.5 L 190,70 L 190.5,69.5 L 191,69 L 191.5,68.5 L 192,68 L 192.5,67.5 L 193,67 L 193.5,66.5 L 194,66 L 194.5,65.5 L 195,65 L 195.5,64.5 L 196,64 L 196.5,63.5 L 197,63 L 197.5,62.5 L 198,62 L 198.5,61.5 L 199,61 L 199.5,60.5 L 200,60 L 200.5,59.5 L 201,59 L 201.5,58.5 L 202,58 L 202.5,57.5 L 203,57 L 203.5,56.5 L 204,56 L 204.5,55.5 L 205,55 L 205.5,54.5 L 206,54 L 206.5,53.5 L 207,53 L 207.5,52.5 L 208,52 L 208.5,51.5 L 209,51 L 209.5,50.5 L 210,50 L 210.5,49.5 L 211,49 L 211.5,48.5 L 212,48 L 212.5,47.5 L 213,47 L 213.5,46.5 L 214,46 L 214.5,45.5 L 215,45 L 215.5,44.5 L 216,44 L 216.5,43.5 L 217,43 L 217.5,42.5 L 218,42 L 218.5,41.5 L 219,41 L 219.5,40.5 L 220,40 L 220.5,39.5 L 221,39 L 221.5,38.5 L 222,38 L 222.5,37.5 L 223,37 L 223.5,36.5 L 224,36 L 224.5,35.5 L 225,35 L 225.5,34.5 L 226,34 L 226.5,33.5 L 227,33 L 227.5,32.5 L 228,32 L 228.5,31.5 L 229,31 L 229.5,30.5 L 230,30 L 230.5,29.5 L 231,29 L 231.5,28.5 L 232,28 L 232.5,27.5 L 233,27 L 233.5,26.5 L 234,26 L 234.5,25.5 L 235,25 L 235.5,24.5 L 236,24 L 236.5,23.5 L 237,23 L 237.5,22.5 L 238,22 L 238.5,21.5 L 239,21 L 239.5,20.5" style="stroke-width: 3px" stroke-width="3"/><path fill="none" stroke="#000000" d="M 80,227 L 80,213" style="stroke-width: 2px" stroke-width="2"/><path fill="none" stroke="#000000" d="M 200,227 L 200,213" style="stroke-width: 2px" stroke-width="2"/><path fill="none" stroke="#000000" d="M 33,180 L 47,180" style="stroke-width: 2px" stroke-width="2"/><path fill="none" stroke="#000000" d="M 33,60 L 47,60" style="stroke-width: 2px" stroke-width="2"/></svg>